HIERARCHY
ROOT Hips
{
	OFFSET 0.000000 121.760803 0.000000
	CHANNELS 6 Xposition Yposition Zposition Xrotation Yrotation Zrotation 
	JOINT Spine
	{
		OFFSET 0.072000 7.257294 -0.789700
		CHANNELS 3 Xrotation Yrotation Zrotation
		JOINT Spine1
		{
			OFFSET 0.000000 12.508769 -0.658067
			CHANNELS 3 Xrotation Yrotation Zrotation
			JOINT Spine1_split
			{
				OFFSET 0.000000 12.508769 -0.658067
				CHANNELS 3 Xrotation Yrotation Zrotation
				JOINT Spine2
				{
					OFFSET 0.000000 12.508769 -0.658067
					CHANNELS 3 Xrotation Yrotation Zrotation
					JOINT Neck
					{
						OFFSET 0.000000 14.033295 7.520400
						CHANNELS 3 Xrotation Yrotation Zrotation
						JOINT Head
						{
							OFFSET 0.000000 8.198502 5.703100
							CHANNELS 3 Xrotation Yrotation Zrotation
							JOINT HeadTop_End
							{
								OFFSET 0.000000 17.760803 13.332701
								CHANNELS 3 Xrotation Yrotation Zrotation
								End Site
								{
									OFFSET 0.000000 0.000000 0.000000
								}
							}
						}
					}
					JOINT LeftShoulder
					{
						OFFSET 6.292450 5.785301 -0.669000
						CHANNELS 3 Xrotation Yrotation Zrotation
						JOINT LeftShoulder_split
						{
							OFFSET 6.292450 5.785301 -0.669000
							CHANNELS 3 Xrotation Yrotation Zrotation
							JOINT LeftArm
							{
								OFFSET 13.907140 -6.093903 1.965100
								CHANNELS 3 Xrotation Yrotation Zrotation
								JOINT LeftForeArm
								{
									OFFSET 34.140198 0.000000 0.000000
									CHANNELS 3 Xrotation Yrotation Zrotation
									JOINT LeftHand
									{
										OFFSET 40.960209 0.000000 0.000000
										CHANNELS 3 Xrotation Yrotation Zrotation
										JOINT LeftHandThumb1
										{
											OFFSET 10.006996 -7.170425 9.573125
											CHANNELS 3 Xrotation Yrotation Zrotation
											JOINT LeftHandThumb2
											{
												OFFSET 1.835007 -1.059448 1.059443
												CHANNELS 3 Xrotation Yrotation Zrotation
												JOINT LeftHandThumb3
												{
													OFFSET 2.112267 -1.219513 1.219518
													CHANNELS 3 Xrotation Yrotation Zrotation
													JOINT LeftHandThumb4
													{
														OFFSET 4.843811 -2.796570 2.796576
														CHANNELS 3 Xrotation Yrotation Zrotation
														End Site
														{
															OFFSET 0.000000 0.000000 0.000000
														}
													}
												}
											}
										}
										JOINT LeftHandIndex1
										{
											OFFSET 18.389847 -0.922348 4.596882
											CHANNELS 3 Xrotation Yrotation Zrotation
											JOINT LeftHandIndex2
											{
												OFFSET 4.711273 0.000000 0.000000
												CHANNELS 3 Xrotation Yrotation Zrotation
												JOINT LeftHandIndex3
												{
													OFFSET 2.886131 0.000000 0.000000
													CHANNELS 3 Xrotation Yrotation Zrotation
													JOINT LeftHandIndex4
													{
														OFFSET 6.145912 0.000000 0.000000
														CHANNELS 3 Xrotation Yrotation Zrotation
														End Site
														{
															OFFSET 0.000000 0.000000 0.000000
														}
													}
												}
											}
										}
										JOINT LeftHandMiddle1
										{
											OFFSET 18.013008 0.000000 0.000000
											CHANNELS 3 Xrotation Yrotation Zrotation
											JOINT LeftHandMiddle2
											{
												OFFSET 4.946693 0.000000 0.000000
												CHANNELS 3 Xrotation Yrotation Zrotation
												JOINT LeftHandMiddle3
												{
													OFFSET 3.342232 0.000000 0.000000
													CHANNELS 3 Xrotation Yrotation Zrotation
													JOINT LeftHandMiddle4
													{
														OFFSET 4.461754 0.000000 0.000000
														CHANNELS 3 Xrotation Yrotation Zrotation
														End Site
														{
															OFFSET 0.000000 0.000000 0.000000
														}
													}
												}
											}
										}
										JOINT LeftHandRing1
										{
											OFFSET 15.849892 -0.102921 -4.126150
											CHANNELS 3 Xrotation Yrotation Zrotation
											JOINT LeftHandRing2
											{
												OFFSET 3.527054 0.000000 0.000000
												CHANNELS 3 Xrotation Yrotation Zrotation
												JOINT LeftHandRing3
												{
													OFFSET 2.961098 0.000000 0.000000
													CHANNELS 3 Xrotation Yrotation Zrotation
													JOINT LeftHandRing4
													{
														OFFSET 4.927200 0.000000 0.000000
														CHANNELS 3 Xrotation Yrotation Zrotation
														End Site
														{
															OFFSET 0.000000 0.000000 0.000000
														}
													}
												}
											}
										}
										JOINT LeftHandPinky1
										{
											OFFSET 12.791824 -0.832031 -6.799156
											CHANNELS 3 Xrotation Yrotation Zrotation
											JOINT LeftHandPinky2
											{
												OFFSET 3.327133 0.000000 0.000000
												CHANNELS 3 Xrotation Yrotation Zrotation
												JOINT LeftHandPinky3
												{
													OFFSET 3.014900 0.000000 0.000000
													CHANNELS 3 Xrotation Yrotation Zrotation
													JOINT LeftHandPinky4
													{
														OFFSET 5.847786 0.000000 0.000000
														CHANNELS 3 Xrotation Yrotation Zrotation
														End Site
														{
															OFFSET 0.000000 0.000000 0.000000
														}
													}
												}
											}
										}
									}
								}
							}
						}
					}
					JOINT RightShoulder
					{
						OFFSET -6.292450 5.785301 -0.669000
						CHANNELS 3 Xrotation Yrotation Zrotation
						JOINT RightShoulder_split
						{
							OFFSET -6.292450 5.785301 -0.669000
							CHANNELS 3 Xrotation Yrotation Zrotation
							JOINT RightArm
							{
								OFFSET -13.907140 -6.093903 1.965100
								CHANNELS 3 Xrotation Yrotation Zrotation
								JOINT RightForeArm
								{
									OFFSET -34.140198 0.000000 0.000000
									CHANNELS 3 Xrotation Yrotation Zrotation
									JOINT RightHand
									{
										OFFSET -40.960209 0.000000 0.000000
										CHANNELS 3 Xrotation Yrotation Zrotation
										JOINT RightHandThumb1
										{
											OFFSET -10.007050 -7.170456 9.573117
											CHANNELS 3 Xrotation Yrotation Zrotation
											JOINT RightHandThumb2
											{
												OFFSET -1.835007 -1.059448 1.059443
												CHANNELS 3 Xrotation Yrotation Zrotation
												JOINT RightHandThumb3
												{
													OFFSET -2.112267 -1.219513 1.219518
													CHANNELS 3 Xrotation Yrotation Zrotation
													JOINT RightHandThumb4
													{
														OFFSET -4.843834 -2.796585 2.796590
														CHANNELS 3 Xrotation Yrotation Zrotation
														End Site
														{
															OFFSET 0.000000 0.000000 0.000000
														}
													}
												}
											}
										}
										JOINT RightHandIndex1
										{
											OFFSET -18.389870 -0.922424 4.596786
											CHANNELS 3 Xrotation Yrotation Zrotation
											JOINT RightHandIndex2
											{
												OFFSET -4.711273 0.000000 0.000000
												CHANNELS 3 Xrotation Yrotation Zrotation
												JOINT RightHandIndex3
												{
													OFFSET -2.886131 0.000000 0.000000
													CHANNELS 3 Xrotation Yrotation Zrotation
													JOINT RightHandIndex4
													{
														OFFSET -6.145920 0.000000 0.000000
														CHANNELS 3 Xrotation Yrotation Zrotation
														End Site
														{
															OFFSET 0.000000 0.000000 0.000000
														}
													}
												}
											}
										}
										JOINT RightHandMiddle1
										{
											OFFSET -18.013008 0.000000 0.000000
											CHANNELS 3 Xrotation Yrotation Zrotation
											JOINT RightHandMiddle2
											{
												OFFSET -4.946693 0.000000 0.000000
												CHANNELS 3 Xrotation Yrotation Zrotation
												JOINT RightHandMiddle3
												{
													OFFSET -3.342232 0.000000 0.000000
													CHANNELS 3 Xrotation Yrotation Zrotation
													JOINT RightHandMiddle4
													{
														OFFSET -4.461754 0.000000 0.000000
														CHANNELS 3 Xrotation Yrotation Zrotation
														End Site
														{
															OFFSET 0.000000 0.000000 0.000000
														}
													}
												}
											}
										}
										JOINT RightHandRing1
										{
											OFFSET -15.849876 -0.102936 -4.126237
											CHANNELS 3 Xrotation Yrotation Zrotation
											JOINT RightHandRing2
											{
												OFFSET -3.527054 0.000000 0.000000
												CHANNELS 3 Xrotation Yrotation Zrotation
												JOINT RightHandRing3
												{
													OFFSET -2.961098 0.000000 0.000000
													CHANNELS 3 Xrotation Yrotation Zrotation
													JOINT RightHandRing4
													{
														OFFSET -4.927200 0.000000 0.000000
														CHANNELS 3 Xrotation Yrotation Zrotation
														End Site
														{
															OFFSET 0.000000 0.000000 0.000000
														}
													}
												}
											}
										}
										JOINT RightHandPinky1
										{
											OFFSET -12.791786 -0.832077 -6.799222
											CHANNELS 3 Xrotation Yrotation Zrotation
											JOINT RightHandPinky2
											{
												OFFSET -3.327133 0.000000 0.000000
												CHANNELS 3 Xrotation Yrotation Zrotation
												JOINT RightHandPinky3
												{
													OFFSET -3.014900 0.000000 0.000000
													CHANNELS 3 Xrotation Yrotation Zrotation
													JOINT RightHandPinky4
													{
														OFFSET -5.847786 0.000000 0.000000
														CHANNELS 3 Xrotation Yrotation Zrotation
														End Site
														{
															OFFSET 0.000000 0.000000 0.000000
														}
													}
												}
											}
										}
									}
								}
							}
						}
					}
				}
			}
		}
	}
	JOINT LeftUpLeg
	{
		OFFSET 13.026900 -6.336304 -1.092800
		CHANNELS 3 Xrotation Yrotation Zrotation
		JOINT LeftLeg
		{
			OFFSET 0.524474 -46.096886 9.782700
			CHANNELS 3 Xrotation Yrotation Zrotation
			JOINT LeftFoot
			{
				OFFSET -0.524474 -53.427422 -12.948200
				CHANNELS 3 Xrotation Yrotation Zrotation
				JOINT LeftToeBase
				{
					OFFSET 0.192200 -14.009700 16.364100
					CHANNELS 3 Xrotation Yrotation Zrotation
					JOINT LeftToe_End
					{
						OFFSET -1.784700 -0.561700 9.474800
						CHANNELS 3 Xrotation Yrotation Zrotation
						End Site
						{
							OFFSET 0.000000 0.000000 0.000000
						}
					}
				}
			}
		}
	}
	JOINT RightUpLeg
	{
		OFFSET -12.883000 -6.336304 -1.092800
		CHANNELS 3 Xrotation Yrotation Zrotation
		JOINT RightLeg
		{
			OFFSET -0.524587 -46.096825 9.782800
			CHANNELS 3 Xrotation Yrotation Zrotation
			JOINT RightFoot
			{
				OFFSET 0.524587 -53.427383 -12.948300
				CHANNELS 3 Xrotation Yrotation Zrotation
				JOINT RightToeBase
				{
					OFFSET -0.192200 -14.009700 16.364100
					CHANNELS 3 Xrotation Yrotation Zrotation
					JOINT RightToe_End
					{
						OFFSET 1.784700 -0.561700 9.474800
						CHANNELS 3 Xrotation Yrotation Zrotation
						End Site
						{
							OFFSET 0.000000 0.000000 0.000000
						}
					}
				}
			}
		}
	}
}
MOTION
Frames: 4
Frame Time: 0.016667
0.809093 104.501854 -0.520758 9.582324 -61.717425 10.100672 15.063958 -0.206010 -4.235759 5.872403 0.563933 -2.798211 0.000000 0.000000 0.000000 5.868718 0.648186 -2.860162 -3.632885 1.437152 3.747493 -20.005950 54.836775 2.407365 0.000000 -0.000000 -0.000001 1.828096 -3.192682 -12.271573 0.000000 0.000000 0.000000 -39.387399 26.350480 -34.911105 0.429367 -46.808441 0.416205 -10.315064 -0.130734 0.363005 40.109941 -15.297172 -0.360499 5.639826 28.097925 11.338841 1.088577 40.896277 22.734011 -0.000002 -0.000001 -0.000000 6.882243 2.840064 -61.140411 8.248011 7.640064 -89.897878 2.146098 8.173441 -41.827730 -0.000001 0.000001 -0.000001 -2.345505 4.688869 -62.655217 8.754138 9.897086 -87.051287 1.995399 4.929298 -37.483440 0.000001 0.000002 0.000001 -9.042457 10.045666 -60.766185 8.524098 9.508821 -66.893029 6.576567 9.896780 -70.385093 0.000001 -0.000001 -0.000002 -17.946899 14.754991 -51.485857 8.868431 8.667058 -84.811968 4.540451 8.852547 -59.152963 -0.000000 -0.000002 0.000000 0.632605 7.257349 8.700389 0.000000 0.000000 0.000000 7.936003 -9.680161 53.429879 -22.867414 36.194699 17.955440 -27.369922 10.432890 -17.813541 -2.346183 -6.100564 10.731435 2.364039 -23.806285 -8.771072 -5.012460 13.984811 5.861509 0.000000 -0.000002 0.000000 -0.054754 0.532096 0.738736 0.019774 -0.087314 5.078498 -0.003991 -2.004397 -2.834034 -0.000000 -0.000001 -0.000000 0.348253 -5.918534 2.583824 1.432602 -4.204220 24.052101 0.133901 1.746465 -5.752987 0.000000 -0.000001 0.000003 1.205819 -11.756063 4.154788 1.794843 -3.771875 26.865400 1.319768 -3.995359 19.486907 -0.000000 -0.000000 -0.000001 2.126200 -19.166867 11.319987 3.354765 -2.122230 18.828554 6.367036 -5.015718 28.949166 0.000001 0.000000 0.000002 -36.713011 11.714739 23.797846 33.621490 -6.644890 1.093991 -2.989918 -2.335978 -16.498184 -1.836411 -0.000621 -0.000027 0.000000 0.000001 0.000000 -30.995470 -19.511323 -32.733921 32.935456 3.740900 -3.787862 -8.999897 0.892552 22.876836 -0.001689 -0.000437 -0.000001 0.000000 -0.000000 -0.000000 
0.646698 104.924866 0.933271 9.385115 -61.984820 9.742202 15.060693 -0.222230 -4.169689 5.808924 0.512832 -2.771130 0.000000 0.000000 0.000000 5.805197 0.597263 -2.833454 -3.638488 1.536348 3.725356 -19.889630 54.758125 2.275296 0.000001 0.000000 0.000000 1.811773 -3.211871 -12.344136 0.000000 0.000000 0.000000 -39.504117 26.319844 -34.529318 1.101684 -46.417938 0.952205 -9.885022 0.827928 1.334645 40.109938 -15.297170 -0.360502 5.639824 28.097926 11.338836 1.088582 40.896284 22.734011 0.000000 0.000001 -0.000000 6.883852 2.854624 -61.141948 8.248011 7.640063 -89.897871 2.146096 8.173441 -41.827723 0.000001 -0.000002 -0.000004 -2.345661 4.688767 -62.645272 8.754115 9.897072 -87.051335 1.995394 4.929301 -37.483440 0.000001 0.000001 0.000002 -9.042453 10.045662 -60.766185 8.524012 9.508685 -66.885816 6.576565 9.896778 -70.385099 0.000003 -0.000001 0.000000 -17.946899 14.754991 -51.485853 8.868242 8.667110 -84.803847 4.540130 8.852546 -59.138886 0.000002 0.000001 0.000000 0.692437 7.427224 8.935628 0.000000 0.000000 0.000000 5.481155 -8.784162 52.938768 -21.606672 32.865644 15.936059 -24.516472 8.994982 -17.062794 -4.116513 -6.706646 9.307959 1.886940 -23.619561 -9.140357 -5.263929 12.857946 5.626023 0.000000 0.000000 -0.000001 -0.010639 0.533228 -1.327964 0.017488 -0.087291 5.720687 -0.003032 -2.008602 -2.593922 0.000000 0.000001 0.000001 0.409166 -5.946822 2.284649 1.424239 -4.181331 21.464414 0.132035 1.746960 -5.369371 0.000001 0.000000 0.000001 0.746800 -11.971089 3.731572 1.819249 -3.840922 25.204785 1.315736 -3.996135 18.646229 0.000000 0.000000 0.000000 1.682348 -18.956604 9.983746 3.331147 -2.133638 16.242130 6.303628 -4.976063 25.911279 0.000001 -0.000001 0.000001 -36.095617 12.190376 23.485908 33.960578 -6.477289 1.105509 -3.882341 -2.359488 -15.905453 -1.836411 -0.000621 -0.000026 -0.000000 0.000001 0.000000 -29.534472 -17.996194 -32.245009 32.232807 1.828252 -3.493321 -6.795952 0.405180 23.001500 -1.203082 -0.026727 0.534008 0.000000 0.000000 0.000000 
0.482457 105.358017 2.386971 9.180619 -62.252625 9.381529 15.049630 -0.287544 -4.076494 5.633801 0.369651 -2.696474 0.000000 0.000000 0.000000 5.629853 0.454785 -2.759860 -3.655637 1.814219 3.662549 -19.581872 54.532360 1.920060 0.000000 -0.000000 0.000000 1.851100 -3.205593 -12.196505 0.000000 0.000000 0.000000 -39.716601 26.246979 -34.186517 2.759069 -45.717437 2.309609 -9.601676 1.846980 2.522840 40.109938 -15.297170 -0.360493 5.639825 28.097926 11.338843 1.088584 40.896277 22.734015 -0.000002 -0.000001 -0.000000 6.885305 2.867583 -61.143259 8.248011 7.640070 -89.897871 2.146098 8.173439 -41.827723 -0.000001 -0.000002 -0.000003 -2.345717 4.688736 -62.636366 8.754115 9.897080 -87.051253 1.995397 4.929300 -37.483436 0.000000 -0.000003 -0.000003 -9.042458 10.045658 -60.766178 8.523940 9.508545 -66.879314 6.576561 9.896779 -70.385093 0.000001 0.000001 -0.000001 -17.946901 14.754990 -51.485853 8.868063 8.667141 -84.796696 4.539708 8.852563 -59.126304 -0.000002 0.000000 0.000002 0.772933 7.546824 9.119212 0.000000 0.000000 0.000000 2.943600 -7.711095 52.563452 -20.404010 29.266111 13.879013 -21.562928 7.631773 -16.206036 -6.237925 -7.289045 7.642139 1.335641 -23.383231 -9.554175 -5.535008 11.541950 5.314245 -0.000000 0.000000 -0.000003 0.036208 0.531748 -3.691429 0.018931 -0.086982 6.453123 -0.001999 -2.013315 -2.311776 -0.000001 -0.000000 -0.000000 0.478645 -5.980249 1.942304 1.420325 -4.160124 18.500778 0.129811 1.747671 -4.924499 0.000000 0.000000 0.000000 0.223183 -12.207963 3.248200 1.839686 -3.913906 23.324304 1.311364 -3.997707 17.693935 -0.000000 -0.000000 -0.000000 1.189576 -18.704716 8.461781 3.307105 -2.146755 13.290743 6.255365 -4.937845 22.440308 -0.000002 -0.000001 -0.000000 -35.414575 12.664693 23.141972 34.212066 -6.272786 1.119969 -4.743648 -2.396522 -15.331727 -1.836411 -0.000620 -0.000027 0.000000 0.000001 -0.000000 -28.132065 -16.477862 -31.831868 31.587986 -0.110546 -3.197366 -4.544475 -0.097149 23.069896 -2.463984 -0.054730 1.093925 0.000000 -0.000000 -0.000000 
0.314456 105.773926 3.829581 8.980846 -62.513095 9.031534 15.029235 -0.394628 -3.966505 5.371682 0.150694 -2.585291 0.000000 0.000000 0.000000 5.367422 0.236848 -2.650278 -3.683366 2.240251 3.564170 -19.144238 54.178310 1.405937 0.000000 0.000000 0.000001 1.843148 -3.270757 -12.215999 0.000000 0.000000 0.000000 -40.079048 26.019770 -33.554199 4.817970 -44.880476 3.995148 -9.298822 2.592854 3.380240 40.109938 -15.297170 -0.360500 5.639824 28.097926 11.338844 1.088578 40.896284 22.734015 0.000001 -0.000000 -0.000000 6.886548 2.878922 -61.144318 8.248014 7.640067 -89.897878 2.146093 8.173443 -41.827730 -0.000001 0.000002 0.000001 -2.345665 4.688658 -62.628457 8.754121 9.897090 -87.051130 1.995397 4.929299 -37.483440 0.000002 -0.000000 -0.000000 -9.042455 10.045660 -60.766185 8.523899 9.508401 -66.873604 6.576565 9.896781 -70.385093 0.000000 0.000003 0.000003 -17.946896 14.754986 -51.485850 8.867857 8.667213 -84.790330 4.539339 8.852560 -59.115287 -0.000000 0.000001 0.000001 0.851989 7.665272 9.321645 0.000000 0.000000 0.000000 0.526173 -6.652009 52.259078 -19.353568 25.785882 11.962587 -18.611736 6.402542 -15.306780 -8.268316 -7.739940 6.081478 0.815468 -23.164139 -9.941018 -5.806305 10.322222 4.998315 -0.000000 0.000000 -0.000002 0.081618 0.527661 -5.928372 0.019957 -0.086685 7.147208 -0.000084 -2.014068 -2.047196 0.000001 0.000001 -0.000001 0.550274 -6.015970 1.586682 1.422002 -4.150006 15.428281 0.127456 1.747964 -4.454202 -0.000000 -0.000001 0.000001 -0.337151 -12.451478 2.730642 1.855732 -3.992486 21.326383 1.307192 -4.000630 16.684214 0.000000 0.000000 -0.000000 0.689161 -18.427456 6.871373 3.285326 -2.163365 10.191935 6.234392 -4.912281 18.803535 -0.000001 0.000000 -0.000001 -34.710120 13.119353 22.775559 34.425328 -6.040169 1.136811 -5.587260 -2.443177 -14.781962 -1.836411 -0.000621 -0.000026 0.000000 0.000000 -0.000000 -26.801307 -14.845372 -31.433350 31.091018 -2.057612 -2.895917 -2.246524 -0.590194 23.034495 -3.681799 -0.086158 1.520992 -0.000000 0.000000 0.000000 
